The Chemical Brothers.Dont Think Live.2012.BRRip.XviD.AbSurdiTy

 
http://www.imdb.com/title/tt2137916/


Format : AVI
Format/Info : Audio Video Interleave
File size : 703 MiB
Duration : 1h 27mn
Overall bit rate : 1 121 Kbps
Writing library : VirtualDub build 34703/release

Video
ID : 0
Format : MPEG-4 Visual
Format profile : Advanced Simple@L5
Format settings, BVOP : 4
Format settings, QPel : No
Format settings, GMC : No warppoints
Format settings, Matrix : Default (H.263)
Muxing mode : Packed bitstream
Codec ID : XVID
Codec ID/Hint : XviD
Duration : 1h 27mn
Bit rate : 982 Kbps
Width : 656 pixels
Height : 368 pixels
Display aspect ratio : 16:9
Frame rate : 29.970 fps
Color space : YUV
Chroma subsampling : 4:2:0
Bit depth : 8 bits
Scan type : Progressive
Compression mode : Lossy
Bits/(Pixel*Frame) : 0.136
Stream size : 615 MiB (88%)
Writing library : XviD 64

Audio
ID : 1
Format : MPEG Audio
Format version : Version 1
Format profile : Layer 3
Codec ID : 55
Codec ID/Hint : MP3
Duration : 1h 27mn
Bit rate mode : Constant
Bit rate : 128 Kbps
Channel(s) : 2 channels
Sampling rate : 48.0 KHz
Compression mode : Lossy
Stream size : 80.2 MiB (11%)
Alignment : Split accross interleaves
Interleave, duration : 33 ms (1.00 video frame)
Interleave, preload duration : 500 ms
Writing library : LAMELAME_MAJOR_VERSI


Poster:

 
http://i.imgur.com/UQdYt.jpg


Screens:

 
http://i.imgur.com/E6QSL.png

 
http://i.imgur.com/0wqji.png

 
http://i.imgur.com/3XssK.png


ENJOY!